PathFileType	4	(X/Y/Z)	C:\Users\86182\Documents\cortex\Trimmed_M3_H7.trc
DataRate	CameraRate	NumFrames	NumMarkers	Units	OrigDataRate	OrigDataStartFrame	OrigNumFrames
100.00	100.00	       154	2	mm	100.00	361	       901
Frame#	Time	gripper			box			
		X1	Y1	Z1	X2	Y2	Z2	

361	3.600	268.96811	172.87628	283.46439	268.22287	169.72456	147.31047	
362	3.610	269.00629	172.84717	283.86035	268.20407	169.74744	147.73279	
363	3.620	268.92752	172.88533	284.30005	268.18124	169.77089	148.14909	
364	3.630	268.76831	172.96875	284.76782	268.15811	169.79248	148.56143	
365	3.640	268.59689	173.05614	285.23599	268.13956	169.80922	148.97237	
366	3.650	268.46915	173.11406	285.68433	268.12738	169.82045	149.38293	
367	3.660	268.41565	173.12480	286.10321	268.11929	169.82916	149.79237	
368	3.670	268.44476	173.08505	286.49042	268.11267	169.83870	150.19962	
369	3.680	268.54315	173.00497	286.85187	268.10739	169.84969	150.60425	
370	3.690	268.67218	172.90903	287.20264	268.10461	169.85976	151.00526	
371	3.700	268.77786	172.82990	287.56140	268.10464	169.86559	151.40096	
372	3.710	268.83148	172.78499	287.93591	268.10712	169.86572	151.79033	
373	3.720	268.85400	172.76237	288.31604	268.11215	169.86246	152.17218	
374	3.730	268.87936	172.74297	288.68646	268.12054	169.86020	152.54292	
375	3.740	268.90497	172.72902	289.04279	268.13321	169.86157	152.89804	
376	3.750	268.89426	172.74164	289.39227	268.15015	169.86511	153.23550	
377	3.760	268.82852	172.78963	289.73871	268.17072	169.86740	153.55690	
378	3.770	268.74158	172.84952	290.07053	268.19476	169.86688	153.86462	
379	3.780	268.68900	172.88531	290.36926	268.22256	169.86514	154.15744	
380	3.790	268.70236	172.87753	290.62500	268.25220	169.86549	154.42932	
381	3.800	268.77554	172.83218	290.84174	268.27844	169.87132	154.67397	
382	3.810	268.86487	172.78009	291.03821	268.29526	169.88474	154.88948	
383	3.820	268.90384	172.76620	291.24130	268.29971	169.90517	155.07875	
384	3.830	268.85147	172.81784	291.46677	268.29346	169.92891	155.24657	
385	3.840	268.72659	172.92220	291.70581	268.28131	169.95039	155.39658	
386	3.850	268.57855	173.04478	291.93643	268.26953	169.96533	155.52992	
387	3.860	268.44302	173.15842	292.14044	268.26389	169.97298	155.64581	
388	3.870	268.33258	173.25069	292.30862	268.26678	169.97575	155.74298	
389	3.880	268.24677	173.31920	292.43863	268.27646	169.97676	155.82114	
390	3.890	268.18103	173.36644	292.53271	268.28870	169.97780	155.88164	
391	3.900	268.13190	173.39629	292.59564	268.29959	169.97908	155.92670	
392	3.910	268.09738	173.41252	292.63318	268.30710	169.98007	155.95854	
393	3.920	268.07574	173.41873	292.65161	268.31097	169.98045	155.97939	
394	3.930	268.06509	173.41803	292.65698	268.31207	169.98032	155.99170	
395	3.940	268.06363	173.41283	292.65424	268.31149	169.98000	155.99791	
396	3.950	268.06967	173.40474	292.64716	268.31024	169.97984	156.00029	
397	3.960	268.08182	173.39479	292.63843	268.30911	169.98006	156.00072	
398	3.970	268.09869	173.38376	292.62976	268.30856	169.98071	156.00064	
399	3.980	268.11859	173.37244	292.62225	268.30881	169.98172	156.00099	
400	3.990	268.13965	173.36169	292.61670	268.30991	169.98280	156.00215	
401	4.000	268.15967	173.35234	292.61328	268.31158	169.98346	156.00391	
402	4.010	268.17642	173.34486	292.61166	268.31345	169.98282	156.00543	
403	4.020	268.18759	173.33923	292.61078	268.31476	169.97946	156.00519	
404	4.030	268.19086	173.33479	292.60852	268.31448	169.97144	156.00078	
405	4.040	268.18384	173.33015	292.60181	268.31128	169.95650	155.98914	
406	4.050	268.16397	173.32353	292.58676	268.30325	169.93285	155.96683	
407	4.060	268.12863	173.31325	292.55920	268.28864	169.89990	155.93068	
408	4.070	268.07620	173.29813	292.51556	268.26642	169.85886	155.87859	
409	4.080	268.00818	173.27771	292.45432	268.23727	169.81227	155.81007	
410	4.090	267.93066	173.25227	292.37698	268.20291	169.76331	155.72688	
411	4.100	267.85306	173.22279	292.28870	268.16464	169.71558	155.63342	
412	4.110	267.78452	173.19107	292.19708	268.12323	169.67308	155.53728	
413	4.120	267.73120	173.16000	292.11102	268.08109	169.63925	155.44807	
414	4.130	267.69562	173.13289	292.03857	268.04318	169.61559	155.37474	
415	4.140	267.67664	173.11218	291.98541	268.01550	169.60155	155.32275	
416	4.150	267.67032	173.09875	291.95370	268.00235	169.59532	155.29314	
417	4.160	267.67166	173.09204	291.94226	268.00403	169.59439	155.28345	
418	4.170	267.67612	173.09030	291.94736	268.01682	169.59604	155.28906	
419	4.180	267.68054	173.09105	291.96326	268.03470	169.59773	155.30394	
420	4.190	267.68295	173.09204	291.98315	268.05164	169.59767	155.32130	
421	4.200	267.68234	173.09195	292.00055	268.06271	169.59532	155.33490	
422	4.210	267.67874	173.09064	292.01111	268.06522	169.59154	155.34067	
423	4.220	267.67291	173.08890	292.01318	268.05908	169.58795	155.33763	
424	4.230	267.66580	173.08781	292.00778	268.04633	169.58607	155.32767	
425	4.240	267.65833	173.08807	291.99771	268.03021	169.58641	155.31401	
426	4.250	267.65161	173.08972	291.98645	268.01422	169.58861	155.29984	
427	4.260	267.64670	173.09232	291.97751	268.00180	169.59203	155.28755	
428	4.270	267.64423	173.09540	291.97336	267.99539	169.59612	155.27893	
429	4.280	267.64459	173.09848	291.97501	267.99603	169.60045	155.27490	
430	4.290	267.64783	173.10112	291.98157	268.00278	169.60472	155.27547	
431	4.300	267.65292	173.10312	291.99066	268.01294	169.60858	155.27954	
432	4.310	267.65811	173.10449	291.99896	268.02277	169.61157	155.28520	
433	4.320	267.66138	173.10533	292.00369	268.02869	169.61308	155.29007	
434	4.330	267.66110	173.10571	292.00345	268.02847	169.61258	155.29234	
435	4.340	267.65671	173.10559	291.99847	268.02185	169.61006	155.29163	
436	4.350	267.64893	173.10498	291.99054	268.01050	169.60619	155.28894	
437	4.360	267.64014	173.10408	291.98230	267.99777	169.60188	155.28563	
438	4.370	267.63342	173.10316	291.97644	267.98813	169.59796	155.28281	
439	4.380	267.63120	173.10234	291.97473	267.98535	169.59492	155.28110	
440	4.390	267.63409	173.10153	291.97800	267.99054	169.59271	155.28087	
441	4.400	267.64102	173.10057	291.98566	268.00171	169.59090	155.28217	
442	4.410	267.65005	173.09935	291.99579	268.01544	169.58905	155.28470	
443	4.420	267.65948	173.09792	292.00546	268.02835	169.58731	155.28754	
444	4.430	267.66794	173.09659	292.01205	268.03812	169.58633	155.28938	
445	4.440	267.67459	173.09592	292.01392	268.04358	169.58690	155.28902	
446	4.450	267.67877	173.09627	292.01050	268.04434	169.58928	155.28593	
447	4.460	267.67990	173.09758	292.00244	268.04031	169.59294	155.28058	
448	4.470	267.67786	173.09933	291.99124	268.03192	169.59688	155.27405	
449	4.480	267.67279	173.10100	291.97931	268.02036	169.60011	155.26778	
450	4.490	267.66519	173.10236	291.96979	268.00760	169.60194	155.26324	
451	4.500	267.65585	173.10339	291.96539	267.99615	169.60204	155.26160	
452	4.510	267.64594	173.10396	291.96759	267.98877	169.60054	155.26324	
453	4.520	267.63708	173.10371	291.97623	267.98743	169.59787	155.26788	
454	4.530	267.63086	173.10239	291.98956	267.99240	169.59451	155.27461	
455	4.540	267.62830	173.10008	292.00467	268.00192	169.59088	155.28209	
456	4.550	267.62970	173.09706	292.01791	268.01309	169.58749	155.28882	
457	4.560	267.63498	173.09369	292.02606	268.02316	169.58514	155.29335	
458	4.570	267.64413	173.09023	292.02695	268.03043	169.58475	155.29459	
459	4.580	267.65680	173.08690	292.01996	268.03427	169.58675	155.29221	
460	4.590	267.67163	173.08380	292.00610	268.03510	169.59077	155.28673	
461	4.600	267.68677	173.08099	291.98792	268.03381	169.59579	155.27943	
462	4.610	267.70026	173.07866	291.96933	268.03140	169.60066	155.27193	
463	4.620	267.71027	173.07707	291.95480	268.02887	169.60451	155.26587	
464	4.630	267.71515	173.07664	291.94781	268.02707	169.60681	155.26250	
465	4.640	267.71405	173.07770	291.94977	268.02655	169.60739	155.26239	
466	4.650	267.70709	173.08020	291.95972	268.02716	169.60634	155.26532	
467	4.660	267.69559	173.08371	291.97498	268.02798	169.60405	155.27029	
468	4.670	267.68155	173.08757	291.99167	268.02774	169.60100	155.27605	
469	4.680	267.66733	173.09120	292.00568	268.02518	169.59778	155.28128	
470	4.690	267.65479	173.09422	292.01392	268.01956	169.59502	155.28506	
471	4.700	267.64508	173.09641	292.01505	268.01117	169.59314	155.28683	
472	4.710	267.63895	173.09755	292.00943	268.00165	169.59235	155.28651	
473	4.720	267.63718	173.09756	291.99866	267.99356	169.59262	155.28444	
474	4.730	267.64056	173.09650	291.98499	267.98932	169.59390	155.28131	
475	4.740	267.64929	173.09459	291.97092	267.99033	169.59593	155.27805	
476	4.750	267.66199	173.09210	291.95868	267.99603	169.59827	155.27548	
477	4.760	267.67581	173.08942	291.95026	268.00424	169.60027	155.27429	
478	4.770	267.68771	173.08685	291.94678	268.01266	169.60149	155.27469	
479	4.780	267.69577	173.08466	291.94843	268.01978	169.60182	155.27638	
480	4.790	267.69943	173.08310	291.95450	268.02505	169.60146	155.27876	
481	4.800	267.69876	173.08249	291.96390	268.02829	169.60060	155.28127	
482	4.810	267.69397	173.08302	291.97473	268.02896	169.59938	155.28352	
483	4.820	267.68555	173.08446	291.98495	268.02643	169.59778	155.28542	
484	4.830	267.67456	173.08632	291.99283	268.02036	169.59589	155.28683	
485	4.840	267.66263	173.08835	291.99741	268.01132	169.59396	155.28766	
486	4.850	267.65186	173.09052	291.99866	268.00110	169.59248	155.28770	
487	4.860	267.64456	173.09288	291.99725	267.99252	169.59189	155.28676	
488	4.870	267.64240	173.09538	291.99420	267.98810	169.59245	155.28479	
489	4.880	267.64569	173.09773	291.99030	267.98914	169.59418	155.28197	
490	4.890	267.65283	173.09970	291.98602	267.99496	169.59676	155.27872	
491	4.900	267.66080	173.10115	291.98163	268.00357	169.59956	155.27573	
492	4.910	267.66663	173.10211	291.97717	268.01257	169.60201	155.27350	
493	4.920	267.66870	173.10277	291.97296	268.02005	169.60367	155.27234	
494	4.930	267.66760	173.10310	291.96933	268.02518	169.60445	155.27225	
495	4.940	267.66534	173.10287	291.96689	268.02792	169.60439	155.27312	
496	4.950	267.66406	173.10178	291.96603	268.02863	169.60362	155.27484	
497	4.960	267.66473	173.09975	291.96707	268.02734	169.60223	155.27736	
498	4.970	267.66708	173.09691	291.97025	268.02386	169.60034	155.28052	
499	4.980	267.67041	173.09341	291.97559	268.01843	169.59814	155.28397	
500	4.990	267.67432	173.08960	291.98248	268.01230	169.59598	155.28723	
501	5.000	267.67914	173.08588	291.98959	268.00723	169.59425	155.28986	
502	5.010	267.68536	173.08278	291.99500	268.00504	169.59338	155.29144	
503	5.020	267.69312	173.08083	291.99704	268.00647	169.59364	155.29152	
504	5.030	267.70157	173.08044	291.99506	268.01099	169.59508	155.28983	
505	5.040	267.70883	173.08177	291.98932	268.01682	169.59738	155.28642	
506	5.050	267.71277	173.08447	291.98090	268.02188	169.60008	155.28180	
507	5.060	267.71194	173.08791	291.97134	268.02481	169.60265	155.27666	
508	5.070	267.70648	173.09146	291.96262	268.02533	169.60469	155.27180	
509	5.080	267.69781	173.09480	291.95682	268.02423	169.60600	155.26816	
510	5.090	267.68762	173.09781	291.95566	268.02252	169.60640	155.26648	
511	5.100	267.67740	173.10028	291.95984	268.02063	169.60582	155.26712	
512	5.110	267.66824	173.10181	291.96881	268.01822	169.60420	155.27000	
513	5.120	267.66095	173.10197	291.98105	268.01501	169.60167	155.27475	
514	5.130	267.65591	173.10066	291.99411	268.01138	169.59854	155.28059	
